<?xml version="1.0" encoding="UTF-8"?>
<svg width="24px" height="24px" viewBox="0 0 24 24" version="1.1" xmlns="http://www.w3.org/2000/svg" xmlns:xlink="http://www.w3.org/1999/xlink">
    <!-- Generator: Sketch 52.2 (67145) - http://www.bohemiancoding.com/sketch -->
    <title>icn/calendar</title>
    <desc>Created with Sketch.</desc>
    <g id="icn/calendar" stroke="none" stroke-width="1" fill="none" fill-rule="evenodd">
        <path d="M19.5,4 L19.5,5.5 L18.5,5.5 L18.5,4 L5.5,4 L5.5,5.5 L4.5,5.5 L4.5,4 L3,4 L3,7 L21,7 L21,4 L19.5,4 Z M19.5,3 L22,3 L22,22 L2,22 L2,3 L4.5,3 L4.5,1.5 L5.5,1.5 L5.5,3 L18.5,3 L18.5,1.5 L19.5,1.5 L19.5,3 Z M3,8 L3,21 L21,21 L21,8 L3,8 Z M5,12 L7,12 L7,14 L5,14 L5,12 Z M9,12 L11,12 L11,14 L9,14 L9,12 Z M5,16 L7,16 L7,18 L5,18 L5,16 Z M9,16 L11,16 L11,18 L9,18 L9,16 Z M13,12 L15,12 L15,14 L13,14 L13,12 Z M13,16 L15,16 L15,18 L13,18 L13,16 Z M17,12 L19,12 L19,14 L17,14 L17,12 Z M17,16 L19,16 L19,18 L17,18 L17,16 Z" id="Combined-Shape" fill="#000000" fill-rule="nonzero"></path>
    </g>
</svg>