<?xml version="1.0" encoding="UTF-8"?>
<svg width="16px" height="16px" viewBox="0 0 16 16" version="1.1" xmlns="http://www.w3.org/2000/svg" xmlns:xlink="http://www.w3.org/1999/xlink">
    <!-- Generator: Sketch 52.2 (67145) - http://www.bohemiancoding.com/sketch -->
    <title>icn/date-small-red</title>
    <desc>Created with Sketch.</desc>
    <g id="icn/date-small-red" stroke="none" stroke-width="1" fill="none" fill-rule="evenodd">
        <path d="M3.33333333,0 L3.33333333,1.6 L2.55555556,1.6 C1.7053956,1.6 1,2.32554976 1,3.2 L1,14.4 C1,15.2744504 1.7053956,16 2.55555556,16 L13.4444444,16 C14.2946046,16 15,15.2744504 15,14.4 L15,3.2 C15,2.32554976 14.2946046,1.6 13.4444444,1.6 L12.6666667,1.6 L12.6666667,0 L11.1111111,0 L11.1111111,1.6 L4.88888889,1.6 L4.88888889,0 L3.33333333,0 Z M2.55555556,5.6 L13.4444444,5.6 L13.4444444,14.4 L2.55555556,14.4 L2.55555556,5.6 Z M10.1783852,7.4406248 L7.61111111,10.0796872 L6.21050351,8.6406248 L5.12282982,9.7593752 L7.61111111,12.3203128 L11.2660592,8.5593752 L10.1783852,7.4406248 Z" id="Shape" fill="#E62B1E" fill-rule="nonzero"></path>
    </g>
</svg>