<?xml version="1.0" encoding="UTF-8"?>
<svg width="24px" height="24px" viewBox="0 0 24 24" version="1.1" xmlns="http://www.w3.org/2000/svg" xmlns:xlink="http://www.w3.org/1999/xlink">
    <!-- Generator: Sketch 52.2 (67145) - http://www.bohemiancoding.com/sketch -->
    <title>icn/loacation</title>
    <desc>Created with Sketch.</desc>
    <g id="icn/loacation" stroke="none" stroke-width="1" fill="none" fill-rule="evenodd">
        <path d="M12.5,0.5 C16.921273,0.5 20.5,4.17415969 20.5,8.7 C20.5,10.1832296 19.9995972,11.9324153 19.084131,13.9016849 C18.4498934,15.2660005 17.6303716,16.7048236 16.6693462,18.1848027 C15.8410404,19.4603937 14.9543841,20.6958014 14.0676817,21.8445737 C13.7572298,22.2467814 13.468797,22.609615 13.2096865,22.9272104 C13.0535507,23.1185883 12.9413996,23.2529204 12.8805425,23.324326 L12.5,23.7708293 L12.1194575,23.324326 C12.0586004,23.2529204 11.9464493,23.1185883 11.7903135,22.9272104 C11.531203,22.609615 11.2427702,22.2467814 10.9323183,21.8445737 C10.0456159,20.6958014 9.15895963,19.4603937 8.33065381,18.1848027 C7.36962839,16.7048236 6.55010664,15.2660005 5.91586902,13.9016849 C5.00040276,11.9324153 4.5,10.1832296 4.5,8.7 C4.5,4.17415969 8.07872698,0.5 12.5,0.5 Z M13.2760683,21.2335513 C14.1471784,20.1049799 15.0183346,18.8911688 15.8306538,17.6401973 C16.7678722,16.196881 17.5648512,14.7976359 18.1773266,13.4801333 C19.0368415,11.6312211 19.5,10.0122249 19.5,8.7 C19.5,4.72064031 16.3630127,1.5 12.5,1.5 C8.63698731,1.5 5.5,4.72064031 5.5,8.7 C5.5,10.0122249 5.96315847,11.6312211 6.82267342,13.4801333 C7.43514881,14.7976359 8.23212781,16.196881 9.16934619,17.6401973 C9.98166537,18.8911688 10.8528216,20.1049799 11.7239317,21.2335513 C12.0028622,21.5949213 12.2634284,21.9235899 12.5,22.2149948 C12.7365716,21.9235899 12.9971378,21.5949213 13.2760683,21.2335513 Z M12.5,10.95 C13.7005127,10.95 14.6785714,9.94585969 14.6785714,8.7 C14.6785714,7.45414031 13.7005127,6.45 12.5,6.45 C11.2994873,6.45 10.3214286,7.45414031 10.3214286,8.7 C10.3214286,9.94585969 11.2994873,10.95 12.5,10.95 Z M12.5,11.95 C10.741227,11.95 9.32142857,10.4923403 9.32142857,8.7 C9.32142857,6.90765969 10.741227,5.45 12.5,5.45 C14.258773,5.45 15.6785714,6.90765969 15.6785714,8.7 C15.6785714,10.4923403 14.258773,11.95 12.5,11.95 Z" id="Shape-Copy-2" fill="#000000" fill-rule="nonzero"></path>
    </g>
</svg>