<?xml version="1.0" encoding="UTF-8"?>
<svg width="24px" height="24px" viewBox="0 0 24 24" version="1.1" xmlns="http://www.w3.org/2000/svg" xmlns:xlink="http://www.w3.org/1999/xlink">
    <!-- Generator: Sketch 52.2 (67145) - http://www.bohemiancoding.com/sketch -->
    <title>icn/social-tweet</title>
    <desc>Created with Sketch.</desc>
    <g id="icn/social-tweet" stroke="none" stroke-width="1" fill="none" fill-rule="evenodd">
        <circle id="Oval" fill="#E62B1E" cx="12" cy="12" r="12"></circle>
        <path d="M20,7.53896714 C19.4488466,7.8 18.8554322,7.97652582 18.2329634,8.05539906 C18.8686388,7.64976526 19.3564006,7.00657277 19.5861947,6.24037559 C18.9910197,6.61596244 18.3333334,6.88920188 17.630745,7.03568075 C17.0707872,6.39812207 16.27047,6 15.3847509,6 C13.6863884,6 12.308505,7.46948357 12.308505,9.28169013 C12.308505,9.53896712 12.3349181,9.78873238 12.3877444,10.029108 C9.83007563,9.89201878 7.56295125,8.58685447 6.04419781,6.59906103 C5.77918656,7.08544601 5.62775125,7.64976526 5.62775125,8.25070424 C5.62775125,9.38873239 6.17098094,10.3934272 6.99683031,10.9821596 C6.49322063,10.9661972 6.01778469,10.8169014 5.60221875,10.57277 L5.60221875,10.6131455 C5.60221875,12.2037559 6.663145,13.5305164 8.07184375,13.8309859 C7.81387562,13.9079812 7.54182062,13.9464789 7.26096156,13.9464789 C7.06286313,13.9464789 6.86916719,13.9267606 6.68163406,13.8882629 C7.07342844,15.1915493 8.20919187,16.1408451 9.55626,16.1661972 C8.5032575,17.0469483 7.17555906,17.571831 5.73428406,17.571831 C5.48600094,17.571831 5.24035906,17.5568075 5,17.5267606 C6.36203562,18.456338 7.98027812,19 9.71737969,19 C15.3785878,19 18.4733228,14 18.4733228,9.66291081 C18.4733228,9.52018781 18.4706816,9.37746477 18.4653988,9.23755867 C19.0667372,8.77464788 19.5888359,8.19718311 20,7.53896714" id="Twitter" fill="#FFFFFF"></path>
    </g>
</svg>