<?xml version="1.0" encoding="UTF-8"?>
<svg width="24px" height="24px" viewBox="0 0 24 24" version="1.1" xmlns="http://www.w3.org/2000/svg" xmlns:xlink="http://www.w3.org/1999/xlink">
    <!-- Generator: Sketch 52.2 (67145) - http://www.bohemiancoding.com/sketch -->
    <title>icn/social-instagram</title>
    <desc>Created with Sketch.</desc>
    <g id="icn/social-instagram" stroke="none" stroke-width="1" fill="none" fill-rule="evenodd">
        <circle id="Oval" fill="#E62B1E" cx="12" cy="12" r="12"></circle>
        <path d="M12.0000159,4 C9.82733045,4 9.55489529,4.00920925 8.70161023,4.04814217 C7.8501035,4.08697982 7.26855496,4.22222884 6.75969602,4.42000552 C6.23362529,4.62441921 5.78748454,4.89796583 5.34270931,5.34270931 C4.89796583,5.78748454 4.62441921,6.23362529 4.42000552,6.75969602 C4.22222884,7.26855496 4.08697982,7.8501035 4.04814217,8.70161023 C4.00920925,9.55489529 4,9.82733045 4,12.0000159 C4,14.1726696 4.00920925,14.4451047 4.04814217,15.2983898 C4.08697982,16.1498965 4.22222884,16.731445 4.42000552,17.240304 C4.62441921,17.7663747 4.89796583,18.2125155 5.34270931,18.6572907 C5.78748454,19.1020342 6.23362529,19.3755808 6.75969602,19.5800262 C7.26855496,19.7777712 7.8501035,19.9130202 8.70161023,19.9518578 C9.55489529,19.9907907 9.82733045,20 12.0000159,20 C14.1726696,20 14.4451047,19.9907907 15.2983898,19.9518578 C16.1498965,19.9130202 16.731445,19.7777712 17.240304,19.5800262 C17.7663747,19.3755808 18.2125155,19.1020342 18.6572907,18.6572907 C19.1020342,18.2125155 19.3755808,17.7663747 19.5800262,17.240304 C19.7777712,16.731445 19.9130202,16.1498965 19.9518578,15.2983898 C19.9907907,14.4451047 20,14.1726696 20,12.0000159 C20,9.82733045 19.9907907,9.55489529 19.9518578,8.70161023 C19.9130202,7.8501035 19.7777712,7.26855496 19.5800262,6.75969602 C19.3755808,6.23362529 19.1020342,5.78748454 18.6572907,5.34270931 C18.2125155,4.89796583 17.7663747,4.62441921 17.240304,4.42000552 C16.731445,4.22222884 16.1498965,4.08697982 15.2983898,4.04814217 C14.4451047,4.00920925 14.1726696,4 12.0000159,4 Z M12.0000159,5.44143887 C14.1360866,5.44143887 14.3891188,5.44960017 15.2326865,5.4880885 C16.0126786,5.52365528 16.4362726,5.65398211 16.718171,5.76354048 C17.0915904,5.90866563 17.3580872,6.08202191 17.6380168,6.36198324 C17.9179781,6.64191283 18.0913344,6.9084096 18.2364595,7.28182899 C18.3460179,7.56372745 18.4763447,7.9873214 18.5119115,8.7673135 C18.5503998,9.61088121 18.5585611,9.86391342 18.5585611,12.0000159 C18.5585611,14.1360866 18.5503998,14.3891188 18.5119115,15.2326865 C18.4763447,16.0126786 18.3460179,16.4362726 18.2364595,16.718171 C18.0913344,17.0915904 17.9179781,17.3580872 17.6380168,17.6380168 C17.3580872,17.9179781 17.0915904,18.0913344 16.718171,18.2364595 C16.4362726,18.3460179 16.0126786,18.4763447 15.2326865,18.5119115 C14.3892458,18.5503998 14.1362454,18.5585611 12.0000159,18.5585611 C9.86375464,18.5585611 9.61078594,18.5503998 8.7673135,18.5119115 C7.9873214,18.4763447 7.56372745,18.3460179 7.28182899,18.2364595 C6.9084096,18.0913344 6.64191283,17.9179781 6.36198324,17.6380168 C6.08205366,17.3580872 5.90866563,17.0915904 5.76354048,16.718171 C5.65398211,16.4362726 5.52365528,16.0126786 5.4880885,15.2326865 C5.44960017,14.3891188 5.44143887,14.1360866 5.44143887,12.0000159 C5.44143887,9.86391342 5.44960017,9.61088121 5.4880885,8.7673135 C5.52365528,7.9873214 5.65398211,7.56372745 5.76354048,7.28182899 C5.90866563,6.9084096 6.08202191,6.64191283 6.36198324,6.36198324 C6.64191283,6.08202191 6.9084096,5.90866563 7.28182899,5.76354048 C7.56372745,5.65398211 7.9873214,5.52365528 8.7673135,5.4880885 C9.61088121,5.44960017 9.86391342,5.44143887 12.0000159,5.44143887 Z M12.0000155,8 C9.79084679,8 8,9.79084679 8,12.0000155 C8,14.2091532 9.79084679,16 12.0000155,16 C14.2091532,16 16,14.2091532 16,12.0000155 C16,9.79084679 14.2091532,8 12.0000155,8 Z M16.8,7.20001323 C16.8,7.64184516 16.4418187,8 15.9999868,8 C15.5581813,8 15.2,7.64184516 15.2,7.20001323 C15.2,6.75818131 15.5581813,6.4 15.9999868,6.4 C16.4418187,6.4 16.8,6.75818131 16.8,7.20001323 Z M12.0000155,14.5964929 C10.5659899,14.5964929 9.40350714,13.4340101 9.40350714,12.0000155 C9.40350714,10.5659899 10.5659899,9.40350714 12.0000155,9.40350714 C13.4340101,9.40350714 14.5964929,10.5659899 14.5964929,12.0000155 C14.5964929,13.4340101 13.4340101,14.5964929 12.0000155,14.5964929 Z" id="Combined-Shape-Copy-2" fill="#FFFFFF"></path>
    </g>
</svg>