<?xml version="1.0" encoding="UTF-8"?>
<svg width="24px" height="24px" viewBox="0 0 24 24" version="1.1" xmlns="http://www.w3.org/2000/svg" xmlns:xlink="http://www.w3.org/1999/xlink">
    <!-- Generator: Sketch 52.2 (67145) - http://www.bohemiancoding.com/sketch -->
    <title>icn/ticket</title>
    <desc>Created with Sketch.</desc>
    <g id="icn/ticket" stroke="none" stroke-width="1" fill="none" fill-rule="evenodd">
        <path d="M7,12 L7,11 L9.72727273,11 L9.72727273,12 L7,12 Z M10.6363636,12 L10.6363636,11 L13.3636364,11 L13.3636364,12 L10.6363636,12 Z M14.2727273,12 L14.2727273,11 L17,11 L17,12 L14.2727273,12 Z M8.12601749,3 L6,3 L6,21 L8.12601749,21 C8.57006028,19.2747728 10.1361606,18 12,18 C13.8638394,18 15.4299397,19.2747728 15.8739825,21 L18,21 L18,3 L15.8739825,3 C15.4299397,4.72522721 13.8638394,6 12,6 C10.1361606,6 8.57006028,4.72522721 8.12601749,3 Z M9,2 C9,3.65685425 10.3431458,5 12,5 C13.6568542,5 15,3.65685425 15,2 L18,2 C18.5522847,2 19,2.44771525 19,3 L19,21 C19,21.5522847 18.5522847,22 18,22 L15,22 C15,20.3431458 13.6568542,19 12,19 C10.3431458,19 9,20.3431458 9,22 L6,22 C5.44771525,22 5,21.5522847 5,21 L5,3 C5,2.44771525 5.44771525,2 6,2 L9,2 Z" id="Combined-Shape" fill="#000000" fill-rule="nonzero"></path>
    </g>
</svg>